solid Raspi-Cam_Mounter
facet normal -6.195262309547297e-05 0.9238831925548446 0.38267459110390484
  outer loop
    vertex 53.1300212505353 12.916561247059459 41.55386388007504
    vertex 56.13005483158297 12.417271928439058 42.75977323589099
    vertex 56.13002124378484 12.916762499671512 41.55386368137686
  endloop
endfacet
facet normal -6.195262309547297e-05 0.9238831925548446 0.38267459110390484
  outer loop
    vertex 56.13005483158297 12.417271928439058 42.75977323589099
    vertex 53.1300212505353 12.916561247059459 41.55386388007504
    vertex 53.13005483833343 12.417070675827137 42.75977343458917
  endloop
endfacet
facet normal 2.5611415721558712e-05 -0.38269227273422046 -0.9238758703059479
  outer loop
    vertex 56.13043164730287 6.792979554582791 35.43019792686255
    vertex 53.13051258397873 5.5868783103363295 35.92971177819969
    vertex 53.13043165405333 6.792778301970871 35.430198125560736
  endloop
endfacet
facet normal 2.5611415721558712e-05 -0.38269227273422046 -0.9238758703059479
  outer loop
    vertex 53.13051258397873 5.5868783103363295 35.92971177819969
    vertex 56.13043164730287 6.792979554582791 35.43019792686255
    vertex 56.13051257722829 5.587079562948249 35.92971157950151
  endloop
endfacet
facet normal 0.9999999977458284 6.680319978915651e-05 -6.758408086269253e-06
  outer loop
    vertex 56.13066905768106 3.2574794907577127 38.9657656666081
    vertex 56.13066922744251 3.2575042589576926 41.55395611751479
    vertex 56.130680571755946 3.0871210066942165 40.259862522458384
  endloop
endfacet
facet normal 0.9999999977458284 6.680319978915651e-05 -6.758408086269253e-06
  outer loop
    vertex 56.13066922744251 3.2575042589576926 41.55395611751479
    vertex 56.13066905768106 3.2574794907577127 38.9657656666081
    vertex 56.13063546988295 3.756970061990167 37.75985611209395
  endloop
endfacet
facet normal 0.9999999977458284 6.680319978915651e-05 -6.758408086269253e-06
  outer loop
    vertex 56.13066922744251 3.2575042589576926 41.55395611751479
    vertex 56.13063546988295 3.756970061990167 37.75985611209395
    vertex 56.13063579783678 3.7570179104782016 42.759856111865
  endloop
endfacet
facet normal 0.9999999977458284 6.680319978915651e-05 -6.758408086269253e-06
  outer loop
    vertex 56.13063579783678 3.7570179104782016 42.759856111865
    vertex 56.13063546988295 3.756970061990167 37.75985611209395
    vertex 56.13058209731468 4.551553263408988 36.724314602196344
  endloop
endfacet
facet normal 0.9999999977458284 6.680319978915651e-05 -6.758408086269253e-06
  outer loop
    vertex 56.13063579783678 3.7570179104782016 42.759856111865
    vertex 56.13058209731468 4.551553263408988 36.724314602196344
    vertex 56.130582561111275 4.551620931389671 43.79538241373802
  endloop
endfacet
facet normal 0.9999999977458284 6.680319978915651e-05 -6.758408086269253e-06
  outer loop
    vertex 56.130582561111275 4.551620931389671 43.79538241373802
    vertex 56.13058209731468 4.551553263408988 36.724314602196344
    vertex 56.13051257722829 5.587079562948249 35.92971157950151
  endloop
endfacet
facet normal 0.9999999977458284 6.680319978915651e-05 -6.758408086269253e-06
  outer loop
    vertex 56.13025802060509 9.381169999665683 35.430173158674044
    vertex 56.130263490125024 9.087175006094027 45.00411175788186
    vertex 56.13034482277923 8.087073146726533 35.25981467422143
  endloop
endfacet
facet normal 0.9999999977458284 6.680319978915651e-05 -6.758408086269253e-06
  outer loop
    vertex 56.130263490125024 9.087175006094027 45.00411175788186
    vertex 56.13025802060509 9.381169999665683 35.430173158674044
    vertex 56.130229948604445 9.587166392351985 45.00410697311769
  endloop
endfacet
facet normal 0.9999999977458284 6.680319978915651e-05 -6.758408086269253e-06
  outer loop
    vertex 56.130229948604445 9.587166392351985 45.00410697311769
    vertex 56.13025802060509 9.381169999665683 35.430173158674044
    vertex 56.13017715620513 10.587079551468738 35.929663731035625
  endloop
endfacet
facet normal 0.9999999977458284 6.680319978915651e-05 -6.758408086269253e-06
  outer loop
    vertex 56.130229948604445 9.587166392351985 45.00410697311769
    vertex 56.13017715620513 10.587079551468738 35.929663731035625
    vertex 56.13017772423771 10.587162427480752 44.589917768483424
  endloop
endfacet
facet normal 0.9999999977458284 6.680319978915651e-05 -6.758408086269253e-06
  outer loop
    vertex 56.13017772423771 10.587162427480752 44.589917768483424
    vertex 56.13017715620513 10.587079551468738 35.929663731035625
    vertex 56.13010774035467 11.622621059039602 36.72424693424696
  endloop
endfacet
facet normal 0.9999999977458284 6.680319978915651e-05 -6.758408086269253e-06
  outer loop
    vertex 56.13017772423771 10.587162427480752 44.589917768483424
    vertex 56.13010774035467 11.622621059039602 36.72424693424696
    vertex 56.1301082041514 11.622688727020286 43.795314745788616
  endloop
endfacet
facet normal 0.9999999977458284 6.680319978915651e-05 -6.758408086269253e-06
  outer loop
    vertex 56.1301082041514 11.622688727020286 43.795314745788616
    vertex 56.13010774035467 11.622621059039602 36.72424693424696
    vertex 56.130054503629204 12.417224079951206 37.75977323611994
  endloop
endfacet
facet normal 0.9999999977458284 6.680319978915651e-05 -6.758408086269253e-06
  outer loop
    vertex 56.1301082041514 11.622688727020286 43.795314745788616
    vertex 56.130054503629204 12.417224079951206 37.75977323611994
    vertex 56.13005483158297 12.417271928439058 42.75977323589099
  endloop
endfacet
facet normal 0.9999999977458284 6.680319978915651e-05 -6.758408086269253e-06
  outer loop
    vertex 56.13005483158297 12.417271928439058 42.75977323589099
    vertex 56.130054503629204 12.417224079951206 37.75977323611994
    vertex 56.13002107402351 12.916737731471262 38.965673230470166
  endloop
endfacet
facet normal 0.9999999977458284 6.680319978915651e-05 -6.758408086269253e-06
  outer loop
    vertex 56.13005483158297 12.417271928439058 42.75977323589099
    vertex 56.13002107402351 12.916737731471262 38.965673230470166
    vertex 56.13002124378484 12.916762499671512 41.55386368137686
  endloop
endfacet
facet normal 0.9999999977458284 6.680319978915651e-05 -6.758408086269253e-06
  outer loop
    vertex 56.13002124378484 12.916762499671512 41.55386368137686
    vertex 56.13002107402351 12.916737731471262 38.965673230470166
    vertex 56.13000972970995 13.087120983734874 40.25976682552657
  endloop
endfacet
facet normal 0.9999999977458284 6.680319978915651e-05 -6.758408086269253e-06
  outer loop
    vertex 56.13034482277923 8.087073146726533 35.25981467422143
    vertex 56.130445339123916 7.08722120300952 49.0038245059889
    vertex 56.13043164730287 6.792979554582791 35.43019792686255
  endloop
endfacet
facet normal 0.9999999977458284 6.680319978915651e-05 -6.758408086269253e-06
  outer loop
    vertex 56.130445339123916 7.08722120300952 49.0038245059889
    vertex 56.13034482277923 8.087073146726533 35.25981467422143
    vertex 56.130311171261674 9.087213285133531 49.00380536667826
  endloop
endfacet
facet normal 0.9999999977458284 6.680319978915651e-05 -6.758408086269253e-06
  outer loop
    vertex 56.130311171261674 9.087213285133531 49.00380536667826
    vertex 56.13034482277923 8.087073146726533 35.25981467422143
    vertex 56.130263490125024 9.087175006094027 45.00411175788186
  endloop
endfacet
facet normal 0.9999999977458284 6.680319978915651e-05 -6.758408086269253e-06
  outer loop
    vertex 56.130582561111275 4.551620931389671 43.79538241373802
    vertex 56.13096346587522 2.588831047179967 81.79541119524157
    vertex 56.13070071013917 2.587906854690076 43.79541121373886
  endloop
endfacet
facet normal 0.9999999977458284 6.680319978915651e-05 -6.758408086269253e-06
  outer loop
    vertex 56.13096346587522 2.588831047179967 81.79541119524157
    vertex 56.130582561111275 4.551620931389671 43.79538241373802
    vertex 56.13078114631094 7.088388774768942 81.79532633034911
  endloop
endfacet
facet normal 0.9999999977458284 6.680319978915651e-05 -6.758408086269253e-06
  outer loop
    vertex 56.13078114631094 7.088388774768942 81.79532633034911
    vertex 56.130582561111275 4.551620931389671 43.79538241373802
    vertex 56.13051257722829 5.587079562948249 35.92971157950151
  endloop
endfacet
facet normal 0.9999999977458284 6.680319978915651e-05 -6.758408086269253e-06
  outer loop
    vertex 56.13078114631094 7.088388774768942 81.79532633034911
    vertex 56.13051257722829 5.587079562948249 35.92971157950151
    vertex 56.13043164730287 6.792979554582791 35.43019792686255
  endloop
endfacet
facet normal 0.9999999977458284 6.680319978915651e-05 -6.758408086269253e-06
  outer loop
    vertex 56.13078114631094 7.088388774768942 81.79532633034911
    vertex 56.13043164730287 6.792979554582791 35.43019792686255
    vertex 56.130445339123916 7.08722120300952 49.0038245059889
  endloop
endfacet
facet normal -6.651885124699664e-05 0.991443610001329 -0.1305356800372034
  outer loop
    vertex 53.13002108077393 12.916536478859346 38.96567342916835
    vertex 56.13000972970995 13.087120983734874 40.25976682552657
    vertex 56.13002107402351 12.916737731471262 38.965673230470166
  endloop
endfacet
facet normal -6.651885124699664e-05 0.991443610001329 -0.1305356800372034
  outer loop
    vertex 56.13000972970995 13.087120983734874 40.25976682552657
    vertex 53.13002108077393 12.916536478859346 38.96567342916835
    vertex 53.130009736460416 13.086919731122952 40.25976702422475
  endloop
endfacet
facet normal 5.332641994885143e-05 -0.7933480582925999 0.6087683102459052
  outer loop
    vertex 56.130582561111275 4.551620931389671 43.79538241373802
    vertex 53.13063580458725 3.7568166578662803 42.75985631056319
    vertex 56.13063579783678 3.7570179104782016 42.759856111865
  endloop
endfacet
facet normal 5.332641994885143e-05 -0.7933480582925999 0.6087683102459052
  outer loop
    vertex 53.13063580458725 3.7568166578662803 42.75985631056319
    vertex 56.130582561111275 4.551620931389671 43.79538241373802
    vertex 53.130582567861715 4.5514196787777035 43.7953826124362
  endloop
endfacet
facet normal 6.651885124699664e-05 -0.991443610001329 0.1305356800372034
  outer loop
    vertex 56.13066922744251 3.2575042589576926 41.55395611751479
    vertex 53.13068057850641 3.0869197540822952 40.259862721156566
    vertex 56.130680571755946 3.0871210066942165 40.259862522458384
  endloop
endfacet
facet normal 6.651885124699664e-05 -0.991443610001329 0.1305356800372034
  outer loop
    vertex 53.13068057850641 3.0869197540822952 40.259862721156566
    vertex 56.13066922744251 3.2575042589576926 41.55395611751479
    vertex 53.13066923419293 3.2573030063457704 41.55395631621297
  endloop
endfacet
facet normal -0.99999999904224 -4.3126435993111426e-05 7.458602549867925e-06
  outer loop
    vertex 45.57090862972987 2.5889391385096143 77.79546467141489
    vertex 45.57047039782469 7.08645320598405 45.04550849773819
    vertex 45.57068706624752 2.587453212192856 45.04559307999271
  endloop
endfacet
facet normal -0.99999999904224 -4.3126435993111426e-05 7.458602549867925e-06
  outer loop
    vertex 45.57047039782469 7.08645320598405 45.04550849773819
    vertex 45.57090862972987 2.5889391385096143 77.79546467141489
    vertex 45.57073722129489 7.088420503922333 77.79528047900074
  endloop
endfacet
facet normal 1.1921197310086962e-05 9.570492925165993e-06 0.9999999998831454
  outer loop
    vertex 49.130466515202535 7.086786066206669 49.00390795828211
    vertex 56.130311171261674 9.087213285133531 49.00380536667826
    vertex 49.13033234734022 9.086778148330412 49.003888818971475
  endloop
endfacet
facet normal 1.1921197310086962e-05 9.570492925165993e-06 0.9999999998831454
  outer loop
    vertex 56.130311171261674 9.087213285133531 49.00380536667826
    vertex 49.130466515202535 7.086786066206669 49.00390795828211
    vertex 56.130445339123916 7.08722120300952 49.0038245059889
  endloop
endfacet
facet normal 4.078623961652742e-05 -0.6087690197626008 -0.7933475145948118
  outer loop
    vertex 56.13051257722829 5.587079562948249 35.92971157950151
    vertex 53.13058210406512 4.551352010796886 36.72431480089452
    vertex 53.13051258397873 5.5868783103363295 35.92971177819969
  endloop
endfacet
facet normal 4.078623961652742e-05 -0.6087690197626008 -0.7933475145948118
  outer loop
    vertex 53.13058210406512 4.551352010796886 36.72431480089452
    vertex 56.13051257722829 5.587079562948249 35.92971157950151
    vertex 56.13058209731468 4.551553263408988 36.724314602196344
  endloop
endfacet
facet normal -4.07862396165275e-05 0.608769019762602 0.7933475145948108
  outer loop
    vertex 53.13017773098815 10.586961174868966 44.58991796718161
    vertex 56.1301082041514 11.622688727020286 43.795314745788616
    vertex 53.13010821090186 11.622487474408366 43.7953149444868
  endloop
endfacet
facet normal -4.07862396165275e-05 0.608769019762602 0.7933475145948108
  outer loop
    vertex 56.1301082041514 11.622688727020286 43.795314745788616
    vertex 53.13017773098815 10.586961174868966 44.58991796718161
    vertex 56.13017772423771 10.587162427480752 44.589917768483424
  endloop
endfacet
facet normal -4.7784626415934656e-06 -1.1877688680456607e-05 -0.9999999999180436
  outer loop
    vertex 53.13029245705701 9.086900789145826 43.79528744848265
    vertex 49.13041875410347 7.0867522976902695 43.79538926926707
    vertex 49.13029763306926 9.086716878784047 43.79530573883701
  endloop
endfacet
facet normal -4.7784626415934656e-06 -1.1877688680456607e-05 -0.9999999999180436
  outer loop
    vertex 49.13041875410347 7.0867522976902695 43.79538926926707
    vertex 27.130716960341406 2.5866900736089624 43.79554381780564
    vertex 27.130413074162732 7.085845300255787 43.79548986537201
  endloop
endfacet
facet normal -4.7784626415934656e-06 -1.1877688680456607e-05 -0.9999999999180436
  outer loop
    vertex 27.130716960341406 2.5866900736089624 43.79554381780564
    vertex 49.13041875410347 7.0867522976902695 43.79538926926707
    vertex 56.13070071013917 2.587906854690076 43.79541121373886
  endloop
endfacet
facet normal -4.7784626415934656e-06 -1.1877688680456607e-05 -0.9999999999180436
  outer loop
    vertex 56.13070071013917 2.587906854690076 43.79541121373886
    vertex 49.13041875410347 7.0867522976902695 43.79538926926707
    vertex 53.130582567861715 4.5514196787777035 43.7953826124362
  endloop
endfacet
facet normal -4.7784626415934656e-06 -1.1877688680456607e-05 -0.9999999999180436
  outer loop
    vertex 53.130582567861715 4.5514196787777035 43.7953826124362
    vertex 49.13041875410347 7.0867522976902695 43.79538926926707
    vertex 53.13029245705701 9.086900789145826 43.79528744848265
  endloop
endfacet
facet normal -4.7784626415934656e-06 -1.1877688680456607e-05 -0.9999999999180436
  outer loop
    vertex 56.13070071013917 2.587906854690076 43.79541121373886
    vertex 53.130582567861715 4.5514196787777035 43.7953826124362
    vertex 56.130582561111275 4.551620931389671 43.79538241373802
  endloop
endfacet
facet normal 1.164788995703165e-05 1.1209730338179857e-05 0.9999999998693344
  outer loop
    vertex 53.13028465691863 9.087008205621041 45.00414752281786
    vertex 56.130229948604445 9.587166392351985 45.00410697311769
    vertex 53.1302448423614 9.586965141063418 45.004141099228924
  endloop
endfacet
facet normal 1.164788995703165e-05 1.1209730338179857e-05 0.9999999998693344
  outer loop
    vertex 56.130229948604445 9.587166392351985 45.00410697311769
    vertex 53.13028465691863 9.087008205621041 45.00414752281786
    vertex 56.130263490125024 9.087175006094027 45.00411175788186
  endloop
endfacet
facet normal -3.7723391937992625e-05 0.99999999851621 -3.930045664739957e-05
  outer loop
    vertex 49.13041875410347 7.0867522976902695 43.79538926926707
    vertex 45.57047039782469 7.08645320598405 45.04550849773819
    vertex 49.130466515202535 7.086786066206669 49.00390795828211
  endloop
endfacet
facet normal -3.7723391937992625e-05 0.99999999851621 -3.930045664739957e-05
  outer loop
    vertex 45.57047039782469 7.08645320598405 45.04550849773819
    vertex 49.13041875410347 7.0867522976902695 43.79538926926707
    vertex 27.130413074162732 7.085845300255787 43.79548986537201
  endloop
endfacet
facet normal -3.7723391937992625e-05 0.99999999851621 -3.930045664739957e-05
  outer loop
    vertex 49.130466515202535 7.086786066206669 49.00390795828211
    vertex 45.57047039782469 7.08645320598405 45.04550849773819
    vertex 45.57073722129489 7.088420503922333 77.79528047900074
  endloop
endfacet
facet normal -3.7723391937992625e-05 0.99999999851621 -3.930045664739957e-05
  outer loop
    vertex 27.130413074162732 7.085845300255787 43.79548986537201
    vertex 37.070485003458536 7.086136942575661 45.045539860630484
    vertex 45.57047039782469 7.08645320598405 45.04550849773819
  endloop
endfacet
facet normal -3.7723391937992625e-05 0.99999999851621 -3.930045664739957e-05
  outer loop
    vertex 37.070485003458536 7.086136942575661 45.045539860630484
    vertex 27.130413074162732 7.085845300255787 43.79548986537201
    vertex 27.13071325093537 7.08677719563202 77.7954167542729
  endloop
endfacet
facet normal -3.7723391937992625e-05 0.99999999851621 -3.930045664739957e-05
  outer loop
    vertex 37.070485003458536 7.086136942575661 45.045539860630484
    vertex 27.13071325093537 7.08677719563202 77.7954167542729
    vertex 37.07069973596063 7.088126714911439 77.79537115944423
  endloop
endfacet
facet normal -3.7723391937992625e-05 0.99999999851621 -3.930045664739957e-05
  outer loop
    vertex 49.130466515202535 7.086786066206669 49.00390795828211
    vertex 56.13078114631094 7.088388774768942 81.79532633034911
    vertex 56.130445339123916 7.08722120300952 49.0038245059889
  endloop
endfacet
facet normal -3.7723391937992625e-05 0.99999999851621 -3.930045664739957e-05
  outer loop
    vertex 56.13078114631094 7.088388774768942 81.79532633034911
    vertex 49.130466515202535 7.086786066206669 49.00390795828211
    vertex 45.57073722129489 7.088420503922333 77.79528047900074
  endloop
endfacet
facet normal -3.7723391937992625e-05 0.99999999851621 -3.930045664739957e-05
  outer loop
    vertex 56.13078114631094 7.088388774768942 81.79532633034911
    vertex 45.57073722129489 7.088420503922333 77.79528047900074
    vertex 37.07069973596063 7.088126714911439 77.79537115944423
  endloop
endfacet
facet normal -3.7723391937992625e-05 0.99999999851621 -3.930045664739957e-05
  outer loop
    vertex 56.13078114631094 7.088388774768942 81.79532633034911
    vertex 37.07069973596063 7.088126714911439 77.79537115944423
    vertex 27.13071325093537 7.08677719563202 77.7954167542729
  endloop
endfacet
facet normal -3.7723391937992625e-05 0.99999999851621 -3.930045664739957e-05
  outer loop
    vertex 56.13078114631094 7.088388774768942 81.79532633034911
    vertex 27.13071325093537 7.08677719563202 77.7954167542729
    vertex 27.130897503823153 7.0877755647096015 81.79558463182069
  endloop
endfacet
facet normal 6.650172862446188e-05 -0.9914461081937066 -0.13051670439094556
  outer loop
    vertex 56.130680571755946 3.0871210066942165 40.259862522458384
    vertex 53.13066906443152 3.257278238145837 38.96576586530626
    vertex 56.13066905768106 3.2574794907577127 38.9657656666081
  endloop
endfacet
facet normal 6.650172862446188e-05 -0.9914461081937066 -0.13051670439094556
  outer loop
    vertex 53.13066906443152 3.257278238145837 38.96576586530626
    vertex 56.130680571755946 3.0871210066942165 40.259862522458384
    vertex 53.13068057850641 3.0869197540822952 40.259862721156566
  endloop
endfacet
facet normal 2.771926877376675e-05 -0.9999999989205878 3.72889620682849e-05
  outer loop
    vertex 56.13070071013917 2.587906854690076 43.79541121373886
    vertex 45.57068706624752 2.587453212192856 45.04559307999271
    vertex 27.130716960341406 2.5866900736089624 43.79554381780564
  endloop
endfacet
facet normal 2.771926877376675e-05 -0.9999999989205878 3.72889620682849e-05
  outer loop
    vertex 45.57068706624752 2.587453212192856 45.04559307999271
    vertex 56.13070071013917 2.587906854690076 43.79541121373886
    vertex 56.13096346587522 2.588831047179967 81.79541119524157
  endloop
endfacet
facet normal 2.771926877376675e-05 -0.9999999989205878 3.72889620682849e-05
  outer loop
    vertex 45.57068706624752 2.587453212192856 45.04559307999271
    vertex 56.13096346587522 2.588831047179967 81.79541119524157
    vertex 45.57090862972987 2.5889391385096143 77.79546467141489
  endloop
endfacet
facet normal 2.771926877376675e-05 -0.9999999989205878 3.72889620682849e-05
  outer loop
    vertex 45.57090862972987 2.5889391385096143 77.79546467141489
    vertex 56.13096346587522 2.588831047179967 81.79541119524157
    vertex 27.131020026913454 2.5881548789404367 77.79566923259074
  endloop
endfacet
facet normal 2.771926877376675e-05 -0.9999999989205878 3.72889620682849e-05
  outer loop
    vertex 27.131020026913454 2.5881548789404367 77.79566923259074
    vertex 56.13096346587522 2.588831047179967 81.79541119524157
    vertex 27.13105140839584 2.5882647954189 81.79566923031486
  endloop
endfacet
facet normal 2.771926877376675e-05 -0.9999999989205878 3.72889620682849e-05
  outer loop
    vertex 27.130716960341406 2.5866900736089624 43.79554381780564
    vertex 37.070701671959114 2.5871369490362754 45.04562444298685
    vertex 27.131020026913454 2.5881548789404367 77.79566923259074
  endloop
endfacet
facet normal 2.771926877376675e-05 -0.9999999989205878 3.72889620682849e-05
  outer loop
    vertex 37.070701671959114 2.5871369490362754 45.04562444298685
    vertex 27.130716960341406 2.5866900736089624 43.79554381780564
    vertex 45.57068706624752 2.587453212192856 45.04559307999271
  endloop
endfacet
facet normal 2.771926877376675e-05 -0.9999999989205878 3.72889620682849e-05
  outer loop
    vertex 27.131020026913454 2.5881548789404367 77.79566923259074
    vertex 37.070701671959114 2.5871369490362754 45.04562444298685
    vertex 37.0708958672915 2.588611048981534 77.79545575759958
  endloop
endfacet
facet normal 2.771926877376675e-05 -0.9999999989205878 3.72889620682849e-05
  outer loop
    vertex 27.131020026913454 2.5881548789404367 77.79566923259074
    vertex 37.0708958672915 2.588611048981534 77.79545575759958
    vertex 45.57090862972987 2.5889391385096143 77.79546467141489
  endloop
endfacet
facet normal 3.4917625061841758e-06 9.5380346448437e-06 0.9999999999484167
  outer loop
    vertex 37.070701671959114 2.5871369490362754 45.04562444298685
    vertex 45.57047039782469 7.08645320598405 45.04550849773819
    vertex 37.070485003458536 7.086136942575661 45.045539860630484
  endloop
endfacet
facet normal 3.4917625061841758e-06 9.5380346448437e-06 0.9999999999484167
  outer loop
    vertex 45.57047039782469 7.08645320598405 45.04550849773819
    vertex 37.070701671959114 2.5871369490362754 45.04562444298685
    vertex 45.57068706624752 2.587453212192856 45.04559307999271
  endloop
endfacet
facet normal -0.9999999977513871 -6.706030448625744e-05 3.7593139784530033e-07
  outer loop
    vertex 53.13066923419293 3.2573030063457704 41.55395631621297
    vertex 53.13066906443152 3.257278238145837 38.96576586530626
    vertex 53.13068057850641 3.0869197540822952 40.259862721156566
  endloop
endfacet
facet normal -0.9999999977513871 -6.706030448625744e-05 3.7593139784530033e-07
  outer loop
    vertex 53.13066906443152 3.257278238145837 38.96576586530626
    vertex 53.13066923419293 3.2573030063457704 41.55395631621297
    vertex 53.1306354766334 3.75676880937798 37.75985631079214
  endloop
endfacet
facet normal -0.9999999977513871 -6.706030448625744e-05 3.7593139784530033e-07
  outer loop
    vertex 53.1306354766334 3.75676880937798 37.75985631079214
    vertex 53.13066923419293 3.2573030063457704 41.55395631621297
    vertex 53.13063580458725 3.7568166578662803 42.75985631056319
  endloop
endfacet
facet normal -0.9999999977513871 -6.706030448625744e-05 3.7593139784530033e-07
  outer loop
    vertex 53.1306354766334 3.75676880937798 37.75985631079214
    vertex 53.13063580458725 3.7568166578662803 42.75985631056319
    vertex 53.13058210406512 4.551352010796886 36.72431480089452
  endloop
endfacet
facet normal -0.9999999977513871 -6.706030448625744e-05 3.7593139784530033e-07
  outer loop
    vertex 53.13058210406512 4.551352010796886 36.72431480089452
    vertex 53.13063580458725 3.7568166578662803 42.75985631056319
    vertex 53.130582567861715 4.5514196787777035 43.7953826124362
  endloop
endfacet
facet normal -0.9999999977513871 -6.706030448625744e-05 3.7593139784530033e-07
  outer loop
    vertex 53.13058210406512 4.551352010796886 36.72431480089452
    vertex 53.130582567861715 4.5514196787777035 43.7953826124362
    vertex 53.13051258397873 5.5868783103363295 35.92971177819969
  endloop
endfacet
facet normal -0.9999999977513871 -6.706030448625744e-05 3.7593139784530033e-07
  outer loop
    vertex 53.13051258397873 5.5868783103363295 35.92971177819969
    vertex 53.130582567861715 4.5514196787777035 43.7953826124362
    vertex 53.13029245705701 9.086900789145826 43.79528744848265
  endloop
endfacet
facet normal -0.9999999977513871 -6.706030448625744e-05 3.7593139784530033e-07
  outer loop
    vertex 53.13051258397873 5.5868783103363295 35.92971177819969
    vertex 53.13029245705701 9.086900789145826 43.79528744848265
    vertex 53.13043165405333 6.792778301970871 35.430198125560736
  endloop
endfacet
facet normal -0.9999999977513871 -6.706030448625744e-05 3.7593139784530033e-07
  outer loop
    vertex 53.13043165405333 6.792778301970871 35.430198125560736
    vertex 53.13029245705701 9.086900789145826 43.79528744848265
    vertex 53.13034482952967 8.086871894114616 35.25981487291961
  endloop
endfacet
facet normal -0.9999999977513871 -6.706030448625744e-05 3.7593139784530033e-07
  outer loop
    vertex 53.13034482952967 8.086871894114616 35.25981487291961
    vertex 53.13029245705701 9.086900789145826 43.79528744848265
    vertex 53.13025802735556 9.380968747053764 35.430173357372226
  endloop
endfacet
facet normal -0.9999999977513871 -6.706030448625744e-05 3.7593139784530033e-07
  outer loop
    vertex 53.13025802735556 9.380968747053764 35.430173357372226
    vertex 53.13029245705701 9.086900789145826 43.79528744848265
    vertex 53.13028465691863 9.087008205621041 45.00414752281786
  endloop
endfacet
facet normal -0.9999999977513871 -6.706030448625744e-05 3.7593139784530033e-07
  outer loop
    vertex 53.13025802735556 9.380968747053764 35.430173357372226
    vertex 53.13028465691863 9.087008205621041 45.00414752281786
    vertex 53.1302448423614 9.586965141063418 45.004141099228924
  endloop
endfacet
facet normal -0.9999999977513871 -6.706030448625744e-05 3.7593139784530033e-07
  outer loop
    vertex 53.13025802735556 9.380968747053764 35.430173357372226
    vertex 53.1302448423614 9.586965141063418 45.004141099228924
    vertex 53.13025561113886 9.416996016925694 35.43989854891186
  endloop
endfacet
facet normal -0.9999999977513871 -6.706030448625744e-05 3.7593139784530033e-07
  outer loop
    vertex 53.13025561113886 9.416996016925694 35.43989854891186
    vertex 53.1302448423614 9.586965141063418 45.004141099228924
    vertex 53.13017716295557 10.586878298856634 35.929663929733806
  endloop
endfacet
facet normal -0.9999999977513871 -6.706030448625744e-05 3.7593139784530033e-07
  outer loop
    vertex 53.13017716295557 10.586878298856634 35.929663929733806
    vertex 53.1302448423614 9.586965141063418 45.004141099228924
    vertex 53.13017773098815 10.586961174868966 44.58991796718161
  endloop
endfacet
facet normal -0.9999999977513871 -6.706030448625744e-05 3.7593139784530033e-07
  outer loop
    vertex 53.13017716295557 10.586878298856634 35.929663929733806
    vertex 53.13017773098815 10.586961174868966 44.58991796718161
    vertex 53.1301077471051 11.622419806427681 36.72424713294511
  endloop
endfacet
facet normal -0.9999999977513871 -6.706030448625744e-05 3.7593139784530033e-07
  outer loop
    vertex 53.1301077471051 11.622419806427681 36.72424713294511
    vertex 53.13017773098815 10.586961174868966 44.58991796718161
    vertex 53.13010821090186 11.622487474408366 43.7953149444868
  endloop
endfacet
facet normal -0.9999999977513871 -6.706030448625744e-05 3.7593139784530033e-07
  outer loop
    vertex 53.1301077471051 11.622419806427681 36.72424713294511
    vertex 53.13010821090186 11.622487474408366 43.7953149444868
    vertex 53.13005451037962 12.41702282733915 37.75977343481813
  endloop
endfacet
facet normal -0.9999999977513871 -6.706030448625744e-05 3.7593139784530033e-07
  outer loop
    vertex 53.13005451037962 12.41702282733915 37.75977343481813
    vertex 53.13010821090186 11.622487474408366 43.7953149444868
    vertex 53.13005483833343 12.417070675827137 42.75977343458917
  endloop
endfacet
facet normal -0.9999999977513871 -6.706030448625744e-05 3.7593139784530033e-07
  outer loop
    vertex 53.13005451037962 12.41702282733915 37.75977343481813
    vertex 53.13005483833343 12.417070675827137 42.75977343458917
    vertex 53.13002108077393 12.916536478859346 38.96567342916835
  endloop
endfacet
facet normal -0.9999999977513871 -6.706030448625744e-05 3.7593139784530033e-07
  outer loop
    vertex 53.13002108077393 12.916536478859346 38.96567342916835
    vertex 53.13005483833343 12.417070675827137 42.75977343458917
    vertex 53.1300212505353 12.916561247059459 41.55386388007504
  endloop
endfacet
facet normal -0.9999999977513871 -6.706030448625744e-05 3.7593139784530033e-07
  outer loop
    vertex 53.13002108077393 12.916536478859346 38.96567342916835
    vertex 53.1300212505353 12.916561247059459 41.55386388007504
    vertex 53.130009736460416 13.086919731122952 40.25976702422475
  endloop
endfacet
facet normal 0.9999999987911424 4.877197663601199e-05 -6.245784444700976e-06
  outer loop
    vertex 37.070485003458536 7.086136942575661 45.045539860630484
    vertex 37.0708958672915 2.588611048981534 77.79545575759958
    vertex 37.070701671959114 2.5871369490362754 45.04562444298685
  endloop
endfacet
facet normal 0.9999999987911424 4.877197663601199e-05 -6.245784444700976e-06
  outer loop
    vertex 37.0708958672915 2.588611048981534 77.79545575759958
    vertex 37.070485003458536 7.086136942575661 45.045539860630484
    vertex 37.07069973596063 7.088126714911439 77.79537115944423
  endloop
endfacet
facet normal -8.821275400569878e-06 0.13051670409285954 -0.9914461104240221
  outer loop
    vertex 56.13025802060509 9.381169999665683 35.430173158674044
    vertex 53.13034482952967 8.086871894114616 35.25981487291961
    vertex 53.13025802735556 9.380968747053764 35.430173357372226
  endloop
endfacet
facet normal -8.821275400569878e-06 0.13051670409285954 -0.9914461104240221
  outer loop
    vertex 53.13034482952967 8.086871894114616 35.25981487291961
    vertex 56.13025802060509 9.381169999665683 35.430173158674044
    vertex 56.13034482277923 8.087073146726533 35.25981467422143
  endloop
endfacet
facet normal 6.20028240846478e-05 -0.9238758682253948 0.3826922735912274
  outer loop
    vertex 56.13063579783678 3.7570179104782016 42.759856111865
    vertex 53.13066923419293 3.2573030063457704 41.55395631621297
    vertex 56.13066922744251 3.2575042589576926 41.55395611751479
  endloop
endfacet
facet normal 6.20028240846478e-05 -0.9238758682253948 0.3826922735912274
  outer loop
    vertex 53.13066923419293 3.2573030063457704 41.55395631621297
    vertex 56.13063579783678 3.7570179104782016 42.759856111865
    vertex 53.13063580458725 3.7568166578662803 42.75985631056319
  endloop
endfacet
facet normal -5.326140692544167e-05 0.7933475128069611 -0.6087690211288938
  outer loop
    vertex 53.1301077471051 11.622419806427681 36.72424713294511
    vertex 56.130054503629204 12.417224079951206 37.75977323611994
    vertex 56.13010774035467 11.622621059039602 36.72424693424696
  endloop
endfacet
facet normal -5.326140692544167e-05 0.7933475128069611 -0.6087690211288938
  outer loop
    vertex 56.130054503629204 12.417224079951206 37.75977323611994
    vertex 53.1301077471051 11.622419806427681 36.72424713294511
    vertex 53.13005451037962 12.41702282733915 37.75977343481813
  endloop
endfacet
facet normal -4.089031290290327e-05 0.6087538354594862 -0.7933591659150017
  outer loop
    vertex 56.13010774035467 11.622621059039602 36.72424693424696
    vertex 53.13017716295557 10.586878298856634 35.929663929733806
    vertex 53.1301077471051 11.622419806427681 36.72424713294511
  endloop
endfacet
facet normal -4.089031290290327e-05 0.6087538354594862 -0.7933591659150017
  outer loop
    vertex 53.13017716295557 10.586878298856634 35.929663929733806
    vertex 56.13010774035467 11.622621059039602 36.72424693424696
    vertex 56.13017715620513 10.587079551468738 35.929663731035625
  endloop
endfacet
facet normal -6.146018997127932e-05 0.9999999979995481 -1.4951549721166899e-05
  outer loop
    vertex 49.13029763306926 9.086716878784047 43.79530573883701
    vertex 53.13028465691863 9.087008205621041 45.00414752281786
    vertex 53.13029245705701 9.086900789145826 43.79528744848265
  endloop
endfacet
facet normal -6.146018997127932e-05 0.9999999979995481 -1.4951549721166899e-05
  outer loop
    vertex 53.13028465691863 9.087008205621041 45.00414752281786
    vertex 49.13029763306926 9.086716878784047 43.79530573883701
    vertex 49.13033234734022 9.086778148330412 49.003888818971475
  endloop
endfacet
facet normal -6.146018997127932e-05 0.9999999979995481 -1.4951549721166899e-05
  outer loop
    vertex 53.13028465691863 9.087008205621041 45.00414752281786
    vertex 49.13033234734022 9.086778148330412 49.003888818971475
    vertex 56.130311171261674 9.087213285133531 49.00380536667826
  endloop
endfacet
facet normal -6.146018997127932e-05 0.9999999979995481 -1.4951549721166899e-05
  outer loop
    vertex 56.130311171261674 9.087213285133531 49.00380536667826
    vertex 56.130263490125024 9.087175006094027 45.00411175788186
    vertex 53.13028465691863 9.087008205621041 45.00414752281786
  endloop
endfacet
facet normal -0.9999999978535705 -6.490984718821098e-05 8.920261481526106e-06
  outer loop
    vertex 49.130466515202535 7.086786066206669 49.00390795828211
    vertex 49.13029763306926 9.086716878784047 43.79530573883701
    vertex 49.13041875410347 7.0867522976902695 43.79538926926707
  endloop
endfacet
facet normal -0.9999999978535705 -6.490984718821098e-05 8.920261481526106e-06
  outer loop
    vertex 49.13029763306926 9.086716878784047 43.79530573883701
    vertex 49.130466515202535 7.086786066206669 49.00390795828211
    vertex 49.13033234734022 9.086778148330412 49.003888818971475
  endloop
endfacet
facet normal 5.318154868407782e-05 -0.7933591641325342 -0.6087538368327953
  outer loop
    vertex 56.13063546988295 3.756970061990167 37.75985611209395
    vertex 53.13058210406512 4.551352010796886 36.72431480089452
    vertex 56.13058209731468 4.551553263408988 36.724314602196344
  endloop
endfacet
facet normal 5.318154868407782e-05 -0.7933591641325342 -0.6087538368327953
  outer loop
    vertex 53.13058210406512 4.551352010796886 36.72431480089452
    vertex 56.13063546988295 3.756970061990167 37.75985611209395
    vertex 53.1306354766334 3.75676880937798 37.75985631079214
  endloop
endfacet
facet normal -1.7546866953565277e-05 0.26061161802545174 -0.9654437240161975
  outer loop
    vertex 56.13025802060509 9.381169999665683 35.430173158674044
    vertex 53.13025802735556 9.380968747053764 35.430173357372226
    vertex 53.13025561113886 9.416996016925694 35.43989854891186
  endloop
endfacet
facet normal 6.1952623095473e-05 -0.923883192554845 -0.3826745911039039
  outer loop
    vertex 56.13066905768106 3.2574794907577127 38.9657656666081
    vertex 53.1306354766334 3.75676880937798 37.75985631079214
    vertex 56.13063546988295 3.756970061990167 37.75985611209395
  endloop
endfacet
facet normal 6.1952623095473e-05 -0.923883192554845 -0.3826745911039039
  outer loop
    vertex 53.1306354766334 3.75676880937798 37.75985631079214
    vertex 56.13066905768106 3.2574794907577127 38.9657656666081
    vertex 53.13066906443152 3.257278238145837 38.96576586530626
  endloop
endfacet
facet normal 8.691216170031196e-06 -0.13053567974788258 -0.9914436122327992
  outer loop
    vertex 56.13034482277923 8.087073146726533 35.25981467422143
    vertex 53.13043165405333 6.792778301970871 35.430198125560736
    vertex 53.13034482952967 8.086871894114616 35.25981487291961
  endloop
endfacet
facet normal 8.691216170031196e-06 -0.13053567974788258 -0.9914436122327992
  outer loop
    vertex 53.13043165405333 6.792778301970871 35.430198125560736
    vertex 56.13034482277923 8.087073146726533 35.25981467422143
    vertex 56.13043164730287 6.792979554582791 35.43019792686255
  endloop
endfacet
facet normal 8.925417632282303e-06 9.586265515681862e-06 0.9999999999142202
  outer loop
    vertex 27.13105140839584 2.5882647954189 81.79566923031486
    vertex 56.13078114631094 7.088388774768942 81.79532633034911
    vertex 27.130897503823153 7.0877755647096015 81.79558463182069
  endloop
endfacet
facet normal 8.925417632282303e-06 9.586265515681862e-06 0.9999999999142202
  outer loop
    vertex 56.13078114631094 7.088388774768942 81.79532633034911
    vertex 27.13105140839584 2.5882647954189 81.79566923031486
    vertex 56.13096346587522 2.588831047179967 81.79541119524157
  endloop
endfacet
facet normal -6.20028240846478e-05 0.9238758682253948 -0.3826922735912274
  outer loop
    vertex 53.13005451037962 12.41702282733915 37.75977343481813
    vertex 56.13002107402351 12.916737731471262 38.965673230470166
    vertex 56.130054503629204 12.417224079951206 37.75977323611994
  endloop
endfacet
facet normal -6.20028240846478e-05 0.9238758682253948 -0.3826922735912274
  outer loop
    vertex 56.13002107402351 12.916737731471262 38.965673230470166
    vertex 53.13005451037962 12.41702282733915 37.75977343481813
    vertex 53.13002108077393 12.916536478859346 38.96567342916835
  endloop
endfacet
facet normal -4.681071927278947e-06 -2.9869096444372082e-05 -0.9999999995429624
  outer loop
    vertex 45.57073722129489 7.088420503922333 77.79528047900074
    vertex 37.0708958672915 2.588611048981534 77.79545575759958
    vertex 37.07069973596063 7.088126714911439 77.79537115944423
  endloop
endfacet
facet normal -4.681071927278947e-06 -2.9869096444372082e-05 -0.9999999995429624
  outer loop
    vertex 37.0708958672915 2.588611048981534 77.79545575759958
    vertex 45.57073722129489 7.088420503922333 77.79528047900074
    vertex 45.57090862972987 2.5889391385096143 77.79546467141489
  endloop
endfacet
facet normal -2.0386346055428153e-05 0.3826788957302869 0.923881411408978
  outer loop
    vertex 53.1302448423614 9.586965141063418 45.004141099228924
    vertex 56.13017772423771 10.587162427480752 44.589917768483424
    vertex 53.13017773098815 10.586961174868966 44.58991796718161
  endloop
endfacet
facet normal -2.0386346055428153e-05 0.3826788957302869 0.923881411408978
  outer loop
    vertex 56.13017772423771 10.587162427480752 44.589917768483424
    vertex 53.1302448423614 9.586965141063418 45.004141099228924
    vertex 56.130229948604445 9.587166392351985 45.00410697311769
  endloop
endfacet
facet normal -6.650172862446188e-05 0.9914461081937064 0.1305167043909458
  outer loop
    vertex 53.130009736460416 13.086919731122952 40.25976702422475
    vertex 56.13002124378484 12.916762499671512 41.55386368137686
    vertex 56.13000972970995 13.087120983734874 40.25976682552657
  endloop
endfacet
facet normal -6.650172862446188e-05 0.9914461081937064 0.1305167043909458
  outer loop
    vertex 56.13002124378484 12.916762499671512 41.55386368137686
    vertex 53.130009736460416 13.086919731122952 40.25976702422475
    vertex 53.1300212505353 12.916561247059459 41.55386388007504
  endloop
endfacet
facet normal -0.9999999983260998 -5.119466003419712e-05 2.6961223946507963e-05
  outer loop
    vertex 27.13105140839584 2.5882647954189 81.79566923031486
    vertex 27.13071325093537 7.08677719563202 77.7954167542729
    vertex 27.131020026913454 2.5881548789404367 77.79566923259074
  endloop
endfacet
facet normal -0.9999999983260998 -5.119466003419712e-05 2.6961223946507963e-05
  outer loop
    vertex 27.13071325093537 7.08677719563202 77.7954167542729
    vertex 27.13105140839584 2.5882647954189 81.79566923031486
    vertex 27.130897503823153 7.0877755647096015 81.79558463182069
  endloop
endfacet
facet normal -2.573261163046911e-05 0.382674590238727 -0.9238831946320135
  outer loop
    vertex 56.13025802060509 9.381169999665683 35.430173158674044
    vertex 53.13017716295557 10.586878298856634 35.929663929733806
    vertex 56.13017715620513 10.587079551468738 35.929663731035625
  endloop
endfacet
facet normal -0.9999999976576112 -6.786778845384156e-05 8.873610974942557e-06
  outer loop
    vertex 27.131020026913454 2.5881548789404367 77.79566923259074
    vertex 27.130413074162732 7.085845300255787 43.79548986537201
    vertex 27.130716960341406 2.5866900736089624 43.79554381780564
  endloop
endfacet
facet normal -0.9999999976576112 -6.786778845384156e-05 8.873610974942557e-06
  outer loop
    vertex 27.130413074162732 7.085845300255787 43.79548986537201
    vertex 27.131020026913454 2.5881548789404367 77.79566923259074
    vertex 27.13071325093537 7.08677719563202 77.7954167542729
  endloop
endfacet
facet normal 0.0016213161603300112 0.3861693509585531 -0.9224264760479062
  outer loop
    vertex 56.13025802060509 9.381169999665683 35.430173158674044
    vertex 53.13025561113886 9.416996016925694 35.43989854891186
    vertex 53.13017716295557 10.586878298856634 35.929663929733806
  endloop
endfacet
facet normal -5.31815486840779e-05 0.7933591641325352 0.6087538368327943
  outer loop
    vertex 53.13005483833343 12.417070675827137 42.75977343458917
    vertex 56.1301082041514 11.622688727020286 43.795314745788616
    vertex 56.13005483158297 12.417271928439058 42.75977323589099
  endloop
endfacet
facet normal -5.31815486840779e-05 0.7933591641325352 0.6087538368327943
  outer loop
    vertex 56.1301082041514 11.622688727020286 43.795314745788616
    vertex 53.13005483833343 12.417070675827137 42.75977343458917
    vertex 53.13010821090186 11.622487474408366 43.7953149444868
  endloop
endfacet
endsolid Raspi-Cam_Mounter
